# xmcd
#
# Track frame offsets:
#	183
#	14360
#	43615
#	55180
#	66648
#	80655
#	90490
#	103620
#	120123
#	135938
#	156530
#	170923
#	185070
#	207373
#	222485
#	238768
#	254275
#	272250
#
# Disc length: 3836 seconds
#
# Revision: 3
# Processed by: cddbd v1.5.2PL0 Copyright (c) Steve Scherf et al.
# Submitted via: audiograbber 1.83.01
#
DISCID=050efa12
DTITLE=Charles Aznavour - Charles
DYEAR=1985
DGENRE=
TTITLE0=Il faut savoir
TTITLE1=Non je n i rien oublie
TTITLE2=Jolies momes de mon quartier
TTITLE3=trop tard
TTITLE4=comme des roses
TTITLE5=Ton nom
TTITLE6=Et pour taut
TTITLE7=Qui
TTITLE8=Tot s n va
TTITLE9=Les jours heureux
TTITLE10=Par gourmandise
TTITLE11=Je t'attends
TTITLE12=Comme ils disent
TTITLE13=Les torr ador
TTITLE14=A ma fille
TTITLE15=Paris au mois d'aout
TTITLE16=Mourir d'aimer
TTITLE17=Idiote je t ime
EXTD=
EXTT0=
EXTT1=
EXTT2=
EXTT3=
EXTT4=
EXTT5=
EXTT6=
EXTT7=
EXTT8=
EXTT9=
EXTT10=
EXTT11=
EXTT12=
EXTT13=
EXTT14=
EXTT15=
EXTT16=
EXTT17=
PLAYORDER=
